<svg viewBox="0 0 1024 1024" xmlns="http://www.w3.org/2000/svg"><path d="M206.24166667 628.61891276V404.71666667h31.56328125l71.75654297 113.28222656c16.61396484 26.24414063 29.56552734 49.82519531 40.20292968 72.74707032l0.65742188-0.33222657c-2.66396484-29.88896484-3.32138672-57.14121094-3.32138672-92.01621094V404.71666667h27.23378907v223.90136719h-29.23154298L274.02027995 515.00358073c-15.61464844-24.92138672-30.56396484-50.48964844-41.85878906-74.74482422l-0.98964844 0.33310547c1.66464844 28.24189453 2.32207031 55.14257813 2.32207031 92.3484375V628.61979167h-27.25224609z m334.52050781-104.9765625h-87.02929688v80.73017579h96.99257813v24.24638671H424.82477214V404.71666667h120.92431639v24.24638672H453.7328776V499.71940105h87.02929688v23.92207031z m87.03017578 104.9765625l-56.80810548-223.90224609h30.56484375l26.5763672 113.28222656c6.64189453 27.90966797 12.61845703 55.81054688 16.61396484 77.40087891h0.65742188c3.65361328-22.25742188 10.62861328-48.83378906 18.26982422-77.73310547l29.8977539-112.95h30.23085938l27.23466797 113.60742188c6.30878906 26.57636719 12.28447266 53.15361328 15.60585936 76.74257812h0.66621095c4.65292969-24.57861328 10.96171875-49.5 17.93671875-77.40878906l29.56464844-112.95h29.56552734l-63.45 223.90136719H750.68717448L722.44527995 512.00651042c-6.96533203-28.56621094-11.62792969-50.48964844-14.61621094-73.08017578h-0.65654298c-3.98671875 22.25742188-8.97363281 44.18085937-17.27929686 73.08017578l-31.88759766 116.60449219h-30.21328125z" fill="#1978FE"></path><path d="M506.04977214 938.2092448c-86.36396484 0-170.1-25.01015625-242.17207032-72.34189454l14.81396485-22.57207031a413.05517578 413.05517578 0 0 0 227.35810547 67.91396485c228.68964844 0 414.74707031-186.05654297 414.74707031-414.74707032s-186.05742188-414.74707031-414.74707031-414.74707031-414.74707031 186.04863281-414.74707032 414.74707031c0 95.58105469 31.67138672 185.43691406 91.56621094 259.83984375l-21.0234375 16.92861328a442.78242187 442.78242187 0 0 1-97.54277344-276.76757812c0-243.5765625 198.17138672-441.74707031 441.74707032-441.74707031s441.74707031 198.16171875 441.74707031 441.74707031-198.16259766 441.74707031-441.74707031 441.74707031z" fill="#1978FE"></path></svg>