<svg xmlns="http://www.w3.org/2000/svg" viewBox="0 0 1024 1024">
    <path d="M888.754717 1024H57.769057V0H888.754717v1024zM116.117736 965.458113h714.288302V58.541887H116.117736v906.916226z m-9.853585-720.664151H19.513962V186.252075H106.264151v58.541887z m434.523774 6.569057H232.042264v-57.962264h308.745661v57.962264zM975.698113 1024H762.203774v-58.541887H975.698113V1024zM733.995472 540.787925H232.042264V483.018868h501.953208v57.769057z m270.490566 482.05283h-57.575849V86.556981h57.575849v936.283774z m-270.490566-191.855095H232.042264v-57.962264h501.953208v57.962264zM106.264151 540.787925H19.513962v-58.541887H106.264151v58.541887z m0 296.187169H19.513962v-58.541886H106.264151v58.541886z"
          fill="#1978FE"></path>
</svg>
