<svg viewBox="0 0 1024 1024" xmlns="http://www.w3.org/2000/svg"><path d="M214.528 894.976c-22.016 0-39.936-17.92-39.936-39.936v-207.36c-3.072-22.016 12.288-42.496 34.304-45.568 22.016-3.072 42.496 12.288 45.568 34.304 0.512 3.584 0.512 7.168 0 11.264v206.848c0.512 22.016-17.92 40.448-39.936 40.448z m199.168 0c-22.016 0-39.936-17.92-39.936-39.936v-328.192c3.072-22.016 23.04-37.888 45.056-34.816 18.432 2.56 32.768 16.896 34.816 34.816v327.168c0.512 22.528-17.408 40.96-39.424 40.96h-0.512z m199.168 0c-22.016 0-39.936-17.92-39.936-39.936V710.656c3.072-22.016 23.04-37.888 45.056-34.816 18.432 2.56 32.768 16.896 34.816 34.816v143.872c0.512 22.016-17.408 40.448-39.936 40.448z m199.168 0c-22.016 0-39.936-17.92-39.936-39.936v-266.24c-3.072-22.016 12.8-42.496 34.816-45.568 22.016-3.072 42.496 12.8 45.568 34.816 0.512 3.584 0.512 7.168 0 10.752v268.8c-1.536 20.992-18.944 37.376-40.448 37.376z m-650.24-401.408c-12.8 0-24.576-5.632-32.256-15.872-12.8-18.432-8.192-43.52 9.728-56.32l288.256-222.208c14.848-11.264 34.816-11.264 49.664 0L609.792 307.2l214.016-178.176c17.92-13.312 43.008-9.216 55.808 8.704 11.776 15.872 9.728 38.4-4.608 52.224l-237.568 200.192c-14.848 12.288-36.352 12.288-51.2 0L454.144 281.088 188.928 484.864c-7.68 6.144-17.408 9.216-27.136 8.704z" fill="#1978FE"></path><path d="M849.408 334.848c-22.016 0-39.936-17.92-40.448-39.936V183.808h-112.64c-22.016-3.072-37.888-23.04-34.816-45.056 2.56-18.432 16.896-32.768 34.816-34.816h153.088c22.016 0 39.936 17.92 40.448 39.936v152.064c-0.512 21.504-18.432 38.912-40.448 38.912z" fill="#1978FE"></path></svg>