<svg viewBox="0 0 1094 1024" xmlns="http://www.w3.org/2000/svg">
    <path d="M145.019586 103.424c-21.927724 0-36.581517 13.594483-36.581517 34.039172v749.073656c0 20.44469 14.653793 34.039172 36.581517 34.039172h804.581517c21.927724 0 36.581517-13.594483 36.581518-34.039172V137.463172c0-20.44469-14.653793-34.039172-36.581518-34.039172H145.019586z m0-68.113655h804.581517C1008.110345 35.310345 1059.310345 82.97931 1059.310345 137.463172v749.073656C1059.310345 941.02069 1008.110345 988.689655 949.601103 988.689655H145.019586C86.510345 988.689655 35.310345 941.02069 35.310345 886.536828V137.463172C35.310345 82.97931 86.510345 35.310345 145.019586 35.310345z m514.718897 272.384h219.418483c21.963034 0 36.581517 13.629793 36.581517 34.074483 0 20.409379-14.618483 34.039172-36.581517 34.039172h-219.418483c-21.963034 0-36.581517-13.629793-36.581517-34.039172 0-20.44469 14.618483-34.074483 36.581517-34.074483zM364.402759 716.305655c21.963034 0 36.581517-13.629793 36.581517-34.074483 0-20.409379-14.618483-34.039172-36.581517-34.039172-21.927724 0-36.546207 13.629793-36.546207 34.039172 0 20.44469 14.618483 34.074483 36.546207 34.074483z m0 68.078345c-58.509241 0-109.709241-47.668966-109.709242-102.152828 0-54.448552 51.2-102.117517 109.709242-102.117517 58.544552 0 109.744552 47.668966 109.744551 102.117517 0 54.483862-51.2 102.152828-109.744551 102.152828z m-7.309242-415.390897L276.691862 294.099862a37.181793 37.181793 0 0 0-51.2 0c-14.653793 13.594483-14.653793 34.039172 0 47.668966l102.4 95.337931c7.309241 6.779586 21.927724 13.594483 29.236966 13.594482 7.309241 0 21.963034 0 29.272275-6.814896l153.6-143.006897c14.618483-13.594483 14.618483-34.039172 0-47.668965a37.181793 37.181793 0 0 0-51.2 0l-131.672275 115.78262z m302.609655 279.198897h219.418483c21.963034 0 36.581517 13.629793 36.581517 34.039172 0 20.44469-14.618483 34.074483-36.581517 34.074483h-219.418483c-21.963034 0-36.581517-13.629793-36.581517-34.074483 0-20.409379 14.618483-34.039172 36.581517-34.039172z" fill="#1978FE"></path>
</svg>
