<svg viewBox="0 0 1024 1024" xmlns="http://www.w3.org/2000/svg"><path d="M385.285528 654.199653l37.234019 0.320295 0-0.661056 106.235556 0c60.740386 0 109.959368-48.969295 109.959368-109.369943L638.714472 440.904779 601.479429 440.904779 601.479429 548.655851c0 37.890982-30.825053 68.591191-68.840878 68.591191l-109.85192 0 0 0.069585L384.251989 617.316627l0-0.069585L170.478208 617.247043c-38.072107 0-68.840878-30.592762-68.840878-68.591191L101.63733 172.393325c0-37.875632 30.824029-68.557422 68.840878-68.557422l362.15932 0c38.07006 0 68.840878 30.592762 68.840878 68.557422l0 161.598468 37.235043 0 0-157.415192c0-60.489676-49.164746-109.369943-109.959368-109.369943l-354.411869 0c-60.738339 0-109.940948 48.986691-109.940948 109.369943l0 367.912347c0 60.489676 49.16577 109.369943 109.940948 109.369943L385.285528 653.858892 385.285528 654.199653 385.285528 654.199653zM849.639369 370.158505 495.22443 370.158505c-60.738339 0-109.940948 48.969295-109.940948 109.370966l0 101.890598 37.235043 0L422.518524 475.344149c0-37.892005 30.823006-68.574818 68.841901-68.574818l362.15932 0c38.072107 0 68.840878 30.592762 68.840878 68.574818L922.360623 851.605651c0 37.875632-30.823006 68.576865-68.840878 68.576865L491.361449 920.182516c-38.072107 0-68.841901-30.592762-68.841901-68.576865L422.519548 691.076538l-37.235043 0 0 156.344814c0 60.508096 49.164746 109.370966 109.940948 109.370966l354.414939 0c60.737316 0 109.957321-48.969295 109.957321-109.370966L959.597713 479.529471C959.596689 419.020352 910.431943 370.158505 849.639369 370.158505z" fill="#1978FE"></path></svg>