<svg viewBox="0 0 1047 1024" xmlns="http://www.w3.org/2000/svg"><path d="M39.981497 563.985683c-7.98636 9.583632-22.361807 9.583632-31.945439 1.597272-9.583632-9.583632-11.180904-23.959079-1.597272-33.542711L455.2722 38.483216c7.98636-9.583632 71.877237-86.252684 170.908097 7.98636 86.252684 81.460869 415.290703 466.403405 415.290703 468.000677 7.98636 9.583632 7.98636 23.959079-1.597272 31.945439s-23.959079 7.98636-33.542711-3.194544c0 0-325.843475-381.747992-412.096159-463.208861-67.085421-63.890877-102.225404-12.778175-102.225404-12.778176s0 1.597272-1.597272 1.597272L39.981497 563.985683z" fill="#1978FE"></path><path d="M97.483286 442.593016c0-12.778175 11.180904-22.361807 23.959079-22.361807s22.361807 9.583632 22.361807 22.361807v535.086098l519.113379 1.597272c11.180904 0 22.361807 9.583632 22.361807 22.361807s-11.180904 22.361807-22.361807 22.361807H121.442365c-12.778175 0-23.959079-9.583632-23.959079-22.361807V442.593016z m849.748669 391.331624c0 12.778175-9.583632 23.959079-22.361807 23.959079s-22.361807-11.180904-22.361807-23.959079l1.597272-412.096159c0-12.778175 9.583632-22.361807 22.361807-22.361807s22.361807 9.583632 22.361807 22.361807l-1.597272 412.096159z" fill="#1978FE"></path><path d="M645.34756 433.009384c-4.791816-1.597272-28.750895-14.375447-43.126342-22.361807-6.389088-1.597272-6.389088-3.194544-7.98636-3.194544-1.597272-1.597272-3.194544-1.597272-3.194544-1.597272-3.194544-1.597272-4.791816-3.194544-6.389088-3.194543v1.597271c0 3.194544 0 6.389088-1.597272 9.583632-3.194544 14.375447-11.180904 25.556351-22.361807 35.139983-9.583632 7.98636-22.361807 12.778175-38.334526 12.778175-14.375447 0-27.153623-6.389088-36.737255-14.375447-11.180904-7.98636-19.167263-20.764535-22.361807-33.542711v-11.180903c-1.597272 0-3.194544 1.597272-4.791815 1.597271 0 1.597272-1.597272 1.597272-3.194544 1.597272l-107.01722 54.307246c-1.597272 1.597272-1.597272 3.194544 1.597272 9.583632 0 1.597272 1.597272 4.791816 1.597272 7.986359l12.778175 33.542711c1.597272 6.389088 1.597272 6.389088 9.583632 3.194544h1.597272l6.389088-1.597272c9.583632-3.194544 28.750895-9.583632 31.945438-9.583632h11.180904v178.894457c0 9.583632 0 19.167263 3.194544 25.556351 1.597272 1.597272 3.194544 4.791816 6.389088 6.389088 1.597272 1.597272 4.791816 3.194544 7.986359 3.194544h161.324466c3.194544 0 6.389088-1.597272 7.986359-3.194544 3.194544-1.597272 6.389088-4.791816 6.389088-6.389088 3.194544-4.791816 3.194544-14.375447 3.194544-23.959079V501.692077l12.778175 1.597272c4.791816 0 14.375447 3.194544 25.556351 6.389088 11.180904 4.791816 22.361807 7.98636 22.361807 7.98636 1.597272 0 1.597272-3.194544 1.597272-7.98636 1.597272-1.597272 1.597272-3.194544 1.597272-4.791816 1.597272-1.597272 1.597272-3.194544 3.194544-6.389087 3.194544-12.778175 12.778175-36.737254 12.778176-38.334527 0 0-4.791816-1.597272-7.98636-3.194544-1.597272-1.597272-3.194544-1.597272-4.791816-3.194544l-6.389088-3.194543c-9.583632-4.791816-27.153623-12.778175-36.737254-17.569992z m-33.542711-43.126342c14.375447 7.98636 38.334526 19.167263 41.529071 20.764535l1.597271 1.597272 3.194544 1.597272c0 1.597272 22.361807 11.180904 33.542711 17.569991 3.194544 0 4.791816 1.597272 6.389088 1.597272 0 1.597272 3.194544 1.597272 4.791815 3.194544 9.583632 4.791816 19.167263 7.98636 20.764536 20.764535 1.597272 6.389088-9.583632 35.139983-14.375448 49.51543 0 3.194544-1.597272 4.791816-1.597272 6.389088 0 0-1.597272 1.597272-1.597272 3.194544-3.194544 11.180904-6.389088 23.959079-20.764535 23.959079-6.389088 1.597272-20.764535-3.194544-33.54271-7.98636-3.194544-1.597272-4.791816-1.597272-7.98636-3.194544v154.935378c1.597272 11.180904 1.597272 23.959079-4.791816 35.139983-3.194544 4.791816-7.98636 11.180904-14.375447 14.375447-6.389088 4.791816-12.778175 6.389088-20.764535 6.389088H440.896752c-6.389088 0-14.375447-3.194544-19.167263-6.389088-6.389088-4.791816-11.180904-9.583632-14.375447-15.972719-4.791816-9.583632-4.791816-22.361807-4.791816-35.139983v-153.338106l-14.375448 4.791816c-1.597272 1.597272-3.194544 1.597272-4.791815 1.597272v1.597272h-3.194544c-25.556351 9.583632-28.750895 9.583632-38.334527-17.569991l-11.180903-35.139983c-1.597272-1.597272-1.597272-4.791816-3.194544-6.389088-6.389088-19.167263-9.583632-28.750895 11.180903-38.334526l107.01722-52.709974c0-1.597272 0-1.597272 1.597272-1.597272 6.389088-3.194544 11.180904-6.389088 20.764535-6.389088l3.194544 1.597272h1.597272c12.778175 7.98636 12.778175 11.180904 12.778175 20.764536v7.986359c3.194544 7.98636 7.98636 15.972719 14.375448 20.764535s14.375447 7.98636 23.959079 7.98636c7.98636 0 15.972719-3.194544 22.361807-7.98636 7.98636-4.791816 12.778175-12.778175 14.375447-20.764535v-6.389087c1.597272-4.791816 1.597272-11.180904 6.389088-15.97272 1.597272-3.194544 3.194544-3.194544 4.791816-4.791816l3.194544-1.597272 1.597272-1.597272h3.194544c9.583632 0 15.972719 3.194544 20.764535 6.389088 1.597272 0 3.194544 1.597272 3.194544 1.597272 4.791816 1.597272 6.389088 3.194544 7.986359 3.194544z" fill="#1978FE"></path><path d="M792.296578 797.187385c20.764535 0 38.334526 7.98636 51.112702 20.764535 12.778175 14.375447 20.764535 31.945439 20.764535 51.112702 0 20.764535-7.98636 38.334526-20.764535 51.112702s-30.348167 20.764535-51.112702 20.764535c-19.167263 0-36.737254-7.98636-49.51543-20.764535s-20.764535-30.348167-20.764535-51.112702c0-19.167263 7.98636-36.737254 20.764535-51.112702 12.778175-12.778175 30.348167-20.764535 49.51543-20.764535z m35.139982 38.334527c-9.583632-9.583632-20.764535-14.375447-35.139982-14.375448-12.778175 0-25.556351 4.791816-33.542711 14.375448-9.583632 7.98636-14.375447 20.764535-14.375447 33.54271 0 14.375447 4.791816 25.556351 14.375447 35.139983 7.98636 7.98636 20.764535 14.375447 33.542711 14.375447 14.375447 0 25.556351-6.389088 35.139982-14.375447 7.98636-9.583632 14.375447-20.764535 14.375448-35.139983 0-12.778175-6.389088-25.556351-14.375448-33.54271z" fill="#1978FE"></path><path d="M827.43656 920.177324c-4.791816-4.791816-4.791816-12.778175 0-15.972719 4.791816-4.791816 11.180904-4.791816 15.97272 0l47.918158 46.320886c4.791816 4.791816 4.791816 12.778175 0 17.569991-4.791816 3.194544-11.180904 3.194544-15.97272 0l-47.918158-47.918158z" fill="#1978FE"></path></svg>