<svg viewBox="0 0 1024 1024" xmlns="http://www.w3.org/2000/svg"><path d="M824.32 141.994667H198.656c-62.805333 0-113.664 50.858667-113.664 113.664v512c0 62.805333 50.858667 113.664 113.664 113.664h625.664c62.805333 0 113.664-50.858667 113.664-113.664V256c0-62.805333-50.858667-114.005333-113.664-114.005333zM881.322667 768c0 31.402667-25.258667 57.002667-57.002667 57.002667H198.656c-31.402667 0-57.002667-25.258667-57.002667-57.002667V256c0-31.402667 25.6-57.002667 57.002667-57.002667h625.664c31.402667 0 57.002667 25.6 57.002667 57.002667v512zM412.330667 316.757333c-8.874667-5.12-19.797333-5.461333-28.672-0.341333a28.808533 28.808533 0 0 0-14.336 24.917333v341.333334c0 10.24 5.461333 19.797333 14.336 24.917333 4.437333 2.389333 9.216 3.754667 13.994666 3.754667 5.12 0 10.24-1.365333 14.677334-4.096l284.330666-170.666667c8.533333-5.12 13.653333-14.336 13.653334-24.234667 0-9.898667-5.461333-19.114667-13.653334-24.576l-284.330666-171.008z m13.653333 315.392v-240.981333l200.704 120.490667-200.704 120.490666z" fill="#1978FE"></path></svg>