<svg viewBox="0 0 1024 1024" xmlns="http://www.w3.org/2000/svg"><path d="M869.1875 631.53125H115.4375c-7.96875 0-15.09375-4.875-18-12.375-2.90625-7.40625-0.9375-15.84375 4.96875-21.28125 24.75-22.6875 38.4375-51.1875 38.4375-80.25 0-29.0625-13.59375-57.65625-38.34375-80.34375-5.90625-5.34375-7.875-13.78125-4.96875-21.28125 2.90625-7.40625 10.03125-12.28125 18-12.28125h753.75c4.875 0 9.46875 1.78125 13.03125 5.0625 32.8125 30.09375 50.8125 68.71875 50.8125 108.75 0 40.125-18.09375 78.75-51 108.75-3.46875 3.46875-8.15625 5.25-12.9375 5.25z m-712.3125-38.625h704.53125c21.46875-21.75 33.1875-48.1875 33.1875-75.1875 0-27-11.71875-53.4375-33.09375-75.1875H156.875c14.71875 23.0625 22.5 48.84375 22.5 75.1875 0.09375 26.34375-7.78125 52.125-22.5 75.1875zM913.90625 914.375h-753.75c-4.78125 0-9.46875-1.78125-13.03125-5.0625-32.90625-30-51-68.625-51-108.75 0-40.03125 18.09375-78.65625 50.8125-108.75 3.5625-3.28125 8.25-5.0625 13.03125-5.0625h753.75c7.96875 0 15.09375 4.875 18 12.28125 2.90625 7.40625 0.9375 15.84375-4.96875 21.28125-24.65625 22.6875-38.25 51.1875-38.25 80.34375 0 29.0625 13.59375 57.65625 38.4375 80.25 5.90625 5.34375 7.875 13.78125 4.96875 21.28125-2.90625 7.3125-10.03125 12.1875-18 12.1875zM167.9375 875.75h704.53125c-14.71875-23.0625-22.59375-48.84375-22.59375-75.1875s7.78125-52.125 22.5-75.1875H167.75c-21.375 21.75-33 48.28125-33 75.1875 0 26.90625 11.71875 53.4375 33.1875 75.1875zM913.90625 348.78125h-753.75c-4.78125 0-9.46875-1.78125-13.03125-5.0625-32.90625-30-51-68.625-51-108.75 0-40.03125 18.09375-78.65625 50.8125-108.75 3.5625-3.28125 8.25-5.0625 13.03125-5.0625h753.75c7.96875 0 15.09375 4.875 18 12.28125 2.90625 7.40625 0.9375 15.84375-4.96875 21.28125-24.65625 22.6875-38.25 51.1875-38.25 80.25 0 29.15625 13.59375 57.65625 38.4375 80.25 5.90625 5.34375 7.875 13.78125 4.96875 21.28125-2.90625 7.3125-10.03125 12.28125-18 12.28125z m-746.0625-38.71875h704.53125c-14.71875-23.0625-22.5-48.84375-22.5-75.1875s7.78125-52.125 22.5-75.1875H167.75c-21.375 21.75-33 48.1875-33 75.1875 0 27 11.71875 53.53125 33.09375 75.1875z" fill="#1978FE"></path></svg>