<svg viewBox="0 0 1024 1024" xmlns="http://www.w3.org/2000/svg"><path d="M834.624 756.716c1.892 0 3.784 0.156 5.564 0.446a33.385 33.385 0 0 1 38.793 29.712l0.156 3.227v111.282a33.385 33.385 0 0 1-66.613 3.205l-0.156-3.205v-15.246L705.382 1012.02a33.385 33.385 0 0 1-42.51 7.078l-2.715-1.78-126.283-92.877-74.425 87.58a33.385 33.385 0 0 1-44.357 5.897l-2.693-2.07a33.385 33.385 0 0 1-5.898-44.357l2.07-2.693 94.59-111.282a33.385 33.385 0 0 1 42.509-7.077l2.715 1.78 126.26 92.854 103.36-121.586h-54.663a33.385 33.385 0 0 1-3.204-66.614l3.204-0.156h111.282zM523.035 0c-141.35 0-255.948 114.598-255.948 255.948s114.598 255.948 255.948 255.948 255.948-114.598 255.948-255.948S664.385 0 523.035 0z m0 66.77a189.18 189.18 0 1 1 0 378.357 189.18 189.18 0 0 1 0-378.358z" fill="#1978FE"></path><path d="M535.877 445.127c187.933 0 357.014 103.737 439.697 264.784 8.368 16.27 2.114 36.323-13.933 44.78-16.024 8.458-35.832 2.159-44.179-14.11-71.398-139.058-218.045-229.04-381.585-229.04-235.472 0-425.831 184.905-425.831 412.276 0 18.34-14.69 33.207-32.761 33.207a32.984 32.984 0 0 1-32.762-33.207c0-264.695 220.294-478.69 491.354-478.69z" fill="#1978FE"></path></svg>