<svg viewBox="0 0 1024 1024" xmlns="http://www.w3.org/2000/svg"><path d="M531.8 740.5c51.9 0 100.8-20.3 137.7-57.2 37-36.9 57.3-85.8 57.3-137.7V239.2c0-51.9-20.4-100.7-57.3-137.7s-85.8-57.3-137.7-57.3-100.7 20.4-137.7 57.3c-37 36.9-57.3 85.8-57.3 137.7v306.3c0 51.9 20.4 100.8 57.3 137.7 36.9 37 85.8 57.3 137.7 57.3z m-151-501.4c0-40.1 15.8-78 44.4-106.6 28.6-28.6 66.5-44.4 106.6-44.4 40.1 0 78 15.8 106.6 44.5 28.6 28.6 44.4 66.5 44.4 106.6v306.3c0 40.1-15.8 78-44.4 106.6s-66.5 44.4-106.6 44.4-78-15.8-106.6-44.4c-28.6-28.6-44.4-66.5-44.4-106.6V239.1z" fill="#1978FE"></path><path d="M825.4 518.9c-12.2 0-22 9.8-22 22 0 72.2-28.3 140.3-79.8 191.8S604 812.5 531.8 812.5 391.5 784.2 340 732.7s-79.8-119.6-79.8-191.8c0-12.2-9.8-22-22-22s-22 9.8-22 22c0 42.4 8.4 83.7 24.9 122.6 16 37.5 38.8 71.3 67.8 100.3 29 29.1 62.8 51.9 100.3 67.8 32.1 13.6 65.9 21.7 100.6 24.1v82.6h-61.9c-12.2 0-22 9.8-22 22s9.8 22 22 22h167.8c12.1 0 22-9.8 22-22s-9.8-22-22-22h-61.9v-82.6c34.7-2.4 68.5-10.5 100.6-24.1 37.5-16 71.3-38.8 100.3-67.8 29.1-29 51.9-62.8 67.8-100.3 16.5-38.9 24.9-80.2 24.9-122.6 0-12.2-9.8-22-22-22z" fill="#1978FE"></path></svg>